<svg xmlns="http://www.w3.org/2000/svg">
    <symbol id='arrowDown'>
        <path d="M15.88 9.28957L12 13.1696L8.11998 9.28957C7.72998 8.89957 7.09998 8.89957 6.70998 9.28957C6.31998 9.67957 6.31998 10.3096 6.70998 10.6996L11.3 15.2896C11.69 15.6796 12.32 15.6796 12.71 15.2896L17.3 10.6996C17.69 10.3096 17.69 9.67957 17.3 9.28957C16.91 8.90957 16.27 8.89957 15.88 9.28957Z"/>
    </symbol>
    <symbol id='arrowUp'>
        <path d="M8.11953 14.7104L11.9995 10.8304L15.8795 14.7104C16.2695 15.1004 16.8995 15.1004 17.2895 14.7104C17.6795 14.3204 17.6795 13.6904 17.2895 13.3004L12.6995 8.71043C12.3095 8.32043 11.6795 8.32043 11.2895 8.71043L6.69953 13.3004C6.30953 13.6904 6.30953 14.3204 6.69953 14.7104C7.08953 15.0904 7.72953 15.1004 8.11953 14.7104Z"/>
    </symbol>
</svg>
